<svg xmlns="http://www.w3.org/2000/svg" width="28" height="28" fill="none" viewBox="0 0 28 28">
  <path fill="#1355FF" d="M14 .666c7.36 0 13.333 5.973 13.333 13.333s-5.974 13.334-13.334 13.334C6.64 27.333.666 21.359.666 13.999.666 6.64 6.639.666 13.999.666Zm0 24a10.652 10.652 0 0 0 10.666-10.667A10.652 10.652 0 0 0 13.999 3.333 10.653 10.653 0 0 0 3.333 13.999a10.652 10.652 0 0 0 10.666 10.667Zm0-2.667a7.99 7.99 0 0 1-8-8c0-4.426 3.573-8 8-8 4.426 0 8 3.574 8 8 0 4.427-3.574 8-8 8Zm0-10.666a2.674 2.674 0 0 0-2.667 2.666c0 1.467 1.2 2.667 2.666 2.667 1.467 0 2.667-1.2 2.667-2.667 0-1.466-1.2-2.666-2.667-2.666Z"/>
</svg>
