<svg xmlns="http://www.w3.org/2000/svg" width="490" height="596" fill="none" viewBox="0 0 490 596">
  <g clip-path="url(#a)">
    <path fill="#DADDE7" d="M338.614 592.29a1.606 1.606 0 1 0 .001 3.211 1.606 1.606 0 0 0-.001-3.211Zm0-48.144a1.606 1.606 0 1 0 .001 3.211 1.606 1.606 0 0 0-.001-3.211Zm0-96.288a1.606 1.606 0 1 0 .001 3.211 1.606 1.606 0 0 0-.001-3.211Zm0-48.144a1.606 1.606 0 1 0 .001 3.211 1.606 1.606 0 0 0-.001-3.211Zm0-48.144a1.606 1.606 0 0 0 0 3.209 1.605 1.605 0 0 0 0-3.209Zm-48.145 240.72a1.605 1.605 0 1 0 .003 3.21 1.605 1.605 0 0 0-.003-3.21Zm0-48.144a1.605 1.605 0 1 0 .003 3.21 1.605 1.605 0 0 0-.003-3.21Zm-48.144 48.144a1.605 1.605 0 1 0 .001 3.21 1.605 1.605 0 0 0-.001-3.21Zm0-48.144a1.605 1.605 0 1 0 .001 3.21 1.605 1.605 0 0 0-.001-3.21Zm48.144-96.288a1.605 1.605 0 1 0 .003 3.21 1.605 1.605 0 0 0-.003-3.21Zm0-48.144a1.605 1.605 0 1 0 .003 3.21 1.605 1.605 0 0 0-.003-3.21Zm0-48.144a1.605 1.605 0 1 0 .003 3.21 1.605 1.605 0 0 0-.003-3.21Zm-48.144 96.288a1.605 1.605 0 1 0 .001 3.21 1.605 1.605 0 0 0-.001-3.21Zm0-48.144a1.605 1.605 0 1 0 .001 3.21 1.605 1.605 0 0 0-.001-3.21Zm0-48.144a1.605 1.605 0 1 0 .001 3.21 1.605 1.605 0 0 0-.001-3.21Zm-48.144 240.72a1.606 1.606 0 1 0 .001 3.211 1.606 1.606 0 0 0-.001-3.211Zm0-48.144a1.606 1.606 0 1 0 .001 3.211 1.606 1.606 0 0 0-.001-3.211Zm0-144.432a1.606 1.606 0 1 0 .001 3.211 1.606 1.606 0 0 0-.001-3.211Zm0 48.144a1.606 1.606 0 1 0 .001 3.211 1.606 1.606 0 0 0-.001-3.211Zm0-96.288a1.606 1.606 0 1 0 .001 3.211 1.606 1.606 0 0 0-.001-3.211Zm-48.144 240.72a1.606 1.606 0 1 0 .001 3.211 1.606 1.606 0 0 0-.001-3.211Zm0-48.144a1.606 1.606 0 1 0 .001 3.211 1.606 1.606 0 0 0-.001-3.211Zm0-48.144a1.606 1.606 0 1 0 .001 3.211 1.606 1.606 0 0 0-.001-3.211Zm0-144.432a1.606 1.606 0 1 0 .001 3.211 1.606 1.606 0 0 0-.001-3.211ZM97.893 592.29a1.605 1.605 0 1 0 0 3.21 1.605 1.605 0 0 0 0-3.21Zm0-192.576a1.605 1.605 0 1 0 0 3.21 1.605 1.605 0 0 0 0-3.21Zm0 144.432a1.605 1.605 0 1 0 0 3.21 1.605 1.605 0 0 0 0-3.21Zm0-48.144a1.605 1.605 0 1 0 0 3.21 1.605 1.605 0 0 0 0-3.21Zm0-48.144a1.605 1.605 0 1 0 0 3.21 1.605 1.605 0 0 0 0-3.21Zm0-96.288a1.605 1.605 0 1 0 0 3.21 1.605 1.605 0 0 0 0-3.21Zm-48.144 48.144a1.605 1.605 0 1 0 0 3.21 1.605 1.605 0 0 0 0-3.21Zm0 192.576a1.605 1.605 0 1 0 0 3.21 1.605 1.605 0 0 0 0-3.21Zm0-48.144a1.605 1.605 0 1 0 0 3.21 1.605 1.605 0 0 0 0-3.21Zm0-48.144a1.605 1.605 0 1 0 0 3.21 1.605 1.605 0 0 0 0-3.21Zm0-48.144a1.605 1.605 0 1 0 0 3.21 1.605 1.605 0 0 0 0-3.21Zm0-96.288a1.605 1.605 0 1 0 0 3.21 1.605 1.605 0 0 0 0-3.21ZM1.605 592.29a1.605 1.605 0 1 0 0 3.21 1.605 1.605 0 0 0 0-3.21Zm0-48.144a1.605 1.605 0 1 0 0 3.21 1.605 1.605 0 0 0 0-3.21Zm0-48.144a1.605 1.605 0 1 0 0 3.21 1.605 1.605 0 0 0 0-3.21Zm0-48.144a1.605 1.605 0 1 0 0 3.21 1.605 1.605 0 0 0 0-3.21Zm0-48.144a1.605 1.605 0 1 0 0 3.21 1.605 1.605 0 0 0 0-3.21Zm0-48.144a1.605 1.605 0 1 0 0 3.21 1.605 1.605 0 0 0 0-3.21Z"/>
    <path fill="#F2F3F8" d="M292.074 399.714h-51.353v51.354h51.353v-51.354Zm-144.432 96.288H48.144V595.5h99.498v-99.498Z"/>
    <path fill="#F2F3F8" d="M490 .653H147.642v496.419H490V.652Z"/>
  </g>
  <defs>
    <clipPath id="a">
      <path fill="#fff" d="M0 0h490v594.847H0z" transform="translate(0 .653)"/>
    </clipPath>
  </defs>
</svg>
