<svg xmlns="http://www.w3.org/2000/svg" width="53" height="42" fill="none" viewBox="0 0 53 42">
  <path fill="#DADDE7" d="M23.388 9.956c-4.629.331-8.142 1.736-10.54 4.216-2.397 2.398-3.389 5.663-2.976 9.796h1.488c.579-1.818 2.108-2.728 4.588-2.728 2.232 0 4.175.868 5.828 2.604 1.654 1.736 2.48 4.01 2.48 6.82 0 3.06-.992 5.54-2.976 7.44-1.984 1.902-4.588 2.852-7.812 2.852-4.05 0-7.192-1.488-9.424-4.464C1.812 33.434.696 29.424.696 24.464c0-6.034 1.819-11.242 5.456-15.624 3.72-4.464 9.466-6.944 17.236-7.44v8.556Zm28.024 0c-4.629.331-8.142 1.736-10.54 4.216-2.397 2.398-3.43 5.663-3.1 9.796h1.488c.579-1.818 2.15-2.728 4.712-2.728 2.232 0 4.175.868 5.828 2.604 1.654 1.736 2.48 4.01 2.48 6.82 0 3.06-.992 5.54-2.976 7.44-1.984 1.902-4.588 2.852-7.812 2.852-4.133 0-7.316-1.488-9.548-4.464-2.149-3.058-3.224-7.068-3.224-12.028 0-6.034 1.819-11.242 5.456-15.624 3.72-4.464 9.466-6.944 17.236-7.44v8.556Z"/>
</svg>
