<svg xmlns="http://www.w3.org/2000/svg" width="274" height="229" fill="none" viewBox="0 0 274 229">
  <g clip-path="url(#a)">
    <path fill="#18264E" d="M272.4 225.75a1.5 1.5 0 1 0 .001 3.001 1.5 1.5 0 0 0-.001-3.001Zm0-45a1.5 1.5 0 1 0 .001 3.001 1.5 1.5 0 0 0-.001-3.001Zm0-45a1.5 1.5 0 1 0 .001 3.001 1.5 1.5 0 0 0-.001-3.001Zm0-45a1.5 1.5 0 1 0 0 3 1.5 1.5 0 0 0 0-3Zm0-45a1.5 1.5 0 1 0 0 3 1.5 1.5 0 0 0 0-3Zm0-45a1.5 1.5 0 1 0 0 3 1.5 1.5 0 0 0 0-3Zm-45 225a1.5 1.5 0 1 0 .001 3.001 1.5 1.5 0 0 0-.001-3.001Zm0-45a1.5 1.5 0 1 0 .001 3.001 1.5 1.5 0 0 0-.001-3.001Zm0-45a1.5 1.5 0 1 0 .001 3.001 1.5 1.5 0 0 0-.001-3.001Zm-45 90a1.5 1.5 0 1 0 .001 3.001 1.5 1.5 0 0 0-.001-3.001Zm0-45a1.5 1.5 0 1 0 .001 3.001 1.5 1.5 0 0 0-.001-3.001Zm0-45a1.5 1.5 0 1 0 .001 3.001 1.5 1.5 0 0 0-.001-3.001Zm45-45a1.5 1.5 0 1 0 0 3 1.5 1.5 0 0 0 0-3Zm0-45a1.5 1.5 0 1 0 0 3 1.5 1.5 0 0 0 0-3Zm0-45a1.5 1.5 0 1 0 0 3 1.5 1.5 0 0 0 0-3Zm-45 90a1.5 1.5 0 1 0 0 3 1.5 1.5 0 0 0 0-3Zm0-45a1.5 1.5 0 1 0 0 3 1.5 1.5 0 0 0 0-3Zm0-45a1.5 1.5 0 1 0 0 3 1.5 1.5 0 0 0 0-3Zm-45 225a1.5 1.5 0 1 0 .001 3.001 1.5 1.5 0 0 0-.001-3.001Zm0-45a1.5 1.5 0 1 0 .001 3.001 1.5 1.5 0 0 0-.001-3.001Zm0-45a1.5 1.5 0 1 0 .001 3.001 1.5 1.5 0 0 0-.001-3.001Zm0-90a1.5 1.5 0 1 0 0 3 1.5 1.5 0 0 0 0-3Zm0 45a1.5 1.5 0 1 0 0 3 1.5 1.5 0 0 0 0-3Zm0-90a1.5 1.5 0 1 0 0 3 1.5 1.5 0 0 0 0-3Zm-45 225a1.5 1.5 0 1 0 0 3 1.5 1.5 0 0 0 0-3Zm0-45a1.5 1.5 0 1 0 0 3 1.5 1.5 0 0 0 0-3Zm0-135a1.5 1.5 0 1 0 0 3 1.5 1.5 0 0 0 0-3Zm0 90a1.5 1.5 0 1 0 0 3 1.5 1.5 0 0 0 0-3Zm0-45a1.5 1.5 0 1 0 0 3 1.5 1.5 0 0 0 0-3Zm0-90a1.5 1.5 0 1 0 0 3 1.5 1.5 0 0 0 0-3Zm-45 225a1.5 1.5 0 1 0 0 3 1.5 1.5 0 0 0 0-3Zm0-180a1.5 1.5 0 1 0 0 3 1.5 1.5 0 0 0 0-3Zm0 135a1.5 1.5 0 1 0 0 3 1.5 1.5 0 0 0 0-3Zm0-45a1.5 1.5 0 1 0 0 3 1.5 1.5 0 0 0 0-3Zm0-45a1.5 1.5 0 1 0 0 3 1.5 1.5 0 0 0 0-3Zm0-90a1.5 1.5 0 1 0 0 3 1.5 1.5 0 0 0 0-3Zm-45 45a1.5 1.5 0 1 0 0 3 1.5 1.5 0 0 0 0-3Zm0 180a1.5 1.5 0 1 0 0 3 1.5 1.5 0 0 0 0-3Zm0-45a1.5 1.5 0 1 0 0 3 1.5 1.5 0 0 0 0-3Zm0-45a1.5 1.5 0 1 0 0 3 1.5 1.5 0 0 0 0-3Zm0-45a1.5 1.5 0 1 0 0 3 1.5 1.5 0 0 0 0-3Zm0-90a1.5 1.5 0 1 0 0 3 1.5 1.5 0 0 0 0-3Z"/>
    <path fill="#0B1A46" d="M228.9 45.75h-48v48h48v-48Zm-135 90H.9v93h93v-93Z"/>
  </g>
  <defs>
    <clipPath id="a">
      <path fill="#fff" d="M0 0h273v228H0z" transform="translate(.9 .75)"/>
    </clipPath>
  </defs>
</svg>
