<svg xmlns="http://www.w3.org/2000/svg" width="530" height="637" fill="none" viewBox="0 0 530 637">
  <path fill="#1355FF" d="M.813 0h529.188v636.391H.813z"/>
  <g clip-path="url(#a)">
    <path fill="#0133B7" d="M272.312 265.839a1.5 1.5 0 1 0 0 3 1.5 1.5 0 0 0 0-3Zm0-45a1.5 1.5 0 1 0 0 3 1.5 1.5 0 0 0 0-3Zm0-45a1.5 1.5 0 1 0 0 3 1.5 1.5 0 0 0 0-3Zm0-45a1.5 1.5 0 1 0 0 3 1.5 1.5 0 0 0 0-3Zm0-45a1.5 1.5 0 1 0 0 3 1.5 1.5 0 0 0 0-3Zm0-45a1.5 1.5 0 1 0 0 3 1.5 1.5 0 0 0 0-3Zm-45 225a1.5 1.5 0 1 0 0 3 1.5 1.5 0 0 0 0-3Zm0-45a1.5 1.5 0 1 0 0 3 1.5 1.5 0 0 0 0-3Zm0-45a1.5 1.5 0 1 0 0 3 1.5 1.5 0 0 0 0-3Zm0-45a1.5 1.5 0 1 0 0 3 1.5 1.5 0 0 0 0-3Zm0-45a1.5 1.5 0 1 0 0 3 1.5 1.5 0 0 0 0-3Zm0-45a1.5 1.5 0 1 0 0 3 1.5 1.5 0 0 0 0-3Zm-45 90a1.5 1.5 0 1 0 0 3 1.5 1.5 0 0 0 0-3Zm0-45a1.5 1.5 0 1 0 0 3 1.5 1.5 0 0 0 0-3Zm0-45a1.5 1.5 0 1 0 0 3 1.5 1.5 0 0 0 0-3Zm-45 225a1.5 1.5 0 1 0 0 3 1.5 1.5 0 0 0 0-3Zm0-45a1.5 1.5 0 1 0 0 3 1.5 1.5 0 0 0 0-3Zm0-45a1.5 1.5 0 1 0 0 3 1.5 1.5 0 0 0 0-3Zm0-90a1.5 1.5 0 1 0 0 3 1.5 1.5 0 0 0 0-3Zm0-45a1.5 1.5 0 1 0 0 3 1.5 1.5 0 0 0 0-3Zm-44.999 225a1.5 1.5 0 1 0-.001 3 1.5 1.5 0 0 0 0-3Zm0-45a1.5 1.5 0 1 0-.001 3 1.5 1.5 0 0 0 0-3Zm0-45a1.5 1.5 0 1 0-.001 3 1.5 1.5 0 0 0 0-3Zm0-90a1.5 1.5 0 1 0 0 3 1.5 1.5 0 0 0 0-3Zm0-45a1.5 1.5 0 1 0 0 3 1.5 1.5 0 0 0 0-3Zm-45 225a1.5 1.5 0 1 0-.001 3 1.5 1.5 0 0 0 0-3Zm0-45a1.5 1.5 0 1 0-.001 3 1.5 1.5 0 0 0 0-3Zm0-45a1.5 1.5 0 1 0-.001 3 1.5 1.5 0 0 0 0-3Zm0-90a1.5 1.5 0 1 0 0 3 1.5 1.5 0 0 0 0-3Zm0-45a1.5 1.5 0 1 0 0 3 1.5 1.5 0 0 0 0-3Zm-45 225a1.5 1.5 0 1 0-.001 3 1.5 1.5 0 0 0 0-3Zm0-45a1.5 1.5 0 1 0-.001 3 1.5 1.5 0 0 0 0-3Zm0-45a1.5 1.5 0 1 0-.001 3 1.5 1.5 0 0 0 0-3Zm0-90a1.5 1.5 0 1 0 0 3 1.5 1.5 0 0 0 0-3Zm0-45a1.5 1.5 0 1 0 0 3 1.5 1.5 0 0 0 0-3Z"/>
  </g>
  <defs>
    <clipPath id="a">
      <path fill="#fff" d="M0 0h273v228H0z" transform="translate(.813 40.839)"/>
    </clipPath>
  </defs>
</svg>
