<svg xmlns="http://www.w3.org/2000/svg" width="24" height="25" fill="none" viewBox="0 0 24 25">
  <path fill="#B6BCCE" d="M11.141 4.5c-1.582 0-2.387.169-3.128.565a3.453 3.453 0 0 0-1.448 1.448C6.169 7.253 6 8.059 6 9.64v5.718c0 1.582.169 2.387.565 3.128.337.63.818 1.111 1.448 1.448.74.396 1.546.565 3.128.565h1.718c1.582 0 2.387-.169 3.128-.565a3.453 3.453 0 0 0 1.448-1.448c.396-.74.565-1.546.565-3.128V9.64c0-1.582-.169-2.387-.565-3.128a3.453 3.453 0 0 0-1.448-1.448c-.74-.395-1.546-.564-3.127-.564h-1.72.001Zm0-2h1.718c2.014 0 3.094.278 4.072.801a5.452 5.452 0 0 1 2.268 2.268c.523.978.801 2.058.801 4.072v5.718c0 2.014-.278 3.094-.801 4.072a5.452 5.452 0 0 1-2.268 2.268c-.978.523-2.058.801-4.072.801H11.14c-2.014 0-3.094-.278-4.072-.801A5.452 5.452 0 0 1 4.8 19.431c-.522-.978-.8-2.058-.8-4.072V9.64c0-2.014.278-3.094.801-4.072A5.452 5.452 0 0 1 7.07 3.301c.977-.523 2.057-.801 4.071-.801ZM11 6.5h2v5h-2v-5Z"/>
</svg>
