<svg xmlns="http://www.w3.org/2000/svg" width="97" height="32" fill="none" viewBox="0 0 97 32">
  <path fill="#1355FF" d="M16 2.666c7.36 0 13.333 5.973 13.333 13.333s-5.974 13.334-13.334 13.334c-7.36 0-13.333-5.974-13.333-13.334 0-7.36 5.973-13.333 13.333-13.333Zm0 24a10.652 10.652 0 0 0 10.666-10.667A10.652 10.652 0 0 0 15.999 5.333 10.653 10.653 0 0 0 5.333 15.999a10.652 10.652 0 0 0 10.666 10.667Zm0-2.667a7.99 7.99 0 0 1-8-8c0-4.426 3.573-8 8-8 4.426 0 8 3.574 8 8 0 4.427-3.574 8-8 8Zm0-10.666a2.674 2.674 0 0 0-2.667 2.666c0 1.467 1.2 2.667 2.666 2.667 1.467 0 2.667-1.2 2.667-2.667 0-1.466-1.2-2.666-2.667-2.666Z"/>
  <path fill="#061237" d="M40 16.565c0 3.988 2.854 6.614 7.199 6.614 4.37 0 7.224-2.775 7.224-6.614 0-3.815-2.854-6.54-7.224-6.54-4.345 0-7.199 2.551-7.199 6.54Zm3.284 0c0-2.032 1.111-3.617 3.915-3.617 2.803 0 3.94 1.585 3.94 3.617 0 2.03-1.137 3.69-3.94 3.69-2.779 0-3.915-1.66-3.915-3.69Zm15.722 5.251c0-.743-.454-1.61-.682-2.328l.53-.174c.253.694.38 1.71.91 2.23.935.966 2.248 1.61 3.915 1.61 3.663 0 6.214-3.047 6.315-6.614.076-3.666-2.526-6.54-6.315-6.54-1.692 0-3.006.57-3.94 1.536-.505.52-.632 1.536-.884 2.254l-.53-.173c.252-.719.681-1.586.681-2.329v-.892l-3.106.025V29l3.106-.025v-7.159Zm4.244-8.992c2.374 0 3.637 1.585 3.637 3.666 0 2.106-1.263 3.84-3.637 3.84-2.35 0-3.688-1.734-3.688-3.84 0-2.08 1.339-3.666 3.688-3.666Zm16.233 9.19c.505-.47.681-1.362.909-2.006l.53.198c-.227.644-.682 1.412-.707 2.08v.496h3.082V10.396h-3.082v6.54c0 2.453-1.516 3.543-3.36 3.543-1.692 0-2.879-.966-2.879-3.543v-6.54H70.87v8.497c0 2.8 2.4 4.26 4.875 4.26 1.743 0 2.703-.148 3.739-1.139ZM97 18.77c0-5.03-9.22-3.32-9.22-5.104 0-.792 1.213-1.164 2.602-1.164 2.046 0 3.233.62 3.233 1.412h3.107c0-1.734-1.692-3.89-6.163-3.89-3.991 0-5.885 1.735-5.885 3.667 0 4.459 9.169 2.849 9.169 5.277 0 .693-.632 1.362-2.552 1.362-2.374 0-3.612-1.115-3.612-1.759h-3.106c0 2.081 2.046 4.608 6.39 4.608 4.117 0 6.037-2.007 6.037-4.41Z"/>
</svg>
