<svg xmlns="http://www.w3.org/2000/svg" width="256" height="139" fill="none" viewBox="0 0 256 139">
  <path fill="#67718E" d="M57.675 79.627c.136 0 .223-.127.262-.38.058-.255-.03-.715-.262-1.38-.077-.254-.251-.704-.522-1.35-.252-.645-.552-1.389-.9-2.23-.349-.841-.706-1.692-1.074-2.553-.349-.86-.668-1.653-.958-2.377a145.67 145.67 0 0 0-.668-1.643c-.252-.665-.523-1.135-.813-1.409-.27-.273-.494-.41-.668-.41h5.923c-.116 0-.194.137-.232.41-.04.274.038.744.232 1.409.097.352.251.87.464 1.555.232.685.484 1.457.755 2.318.29.861.58 1.741.871 2.641.31.9.59 1.732.842 2.495h.029c.213-.783.445-1.624.697-2.524l.726-2.67c.232-.88.435-1.663.61-2.348a39.05 39.05 0 0 0 .406-1.526c.174-.665.242-1.125.203-1.379-.039-.254-.106-.381-.203-.381h6.445c-.116 0-.194.137-.233.41-.038.274.04.744.233 1.409.097.352.242.87.435 1.555.194.685.407 1.457.639 2.318.232.861.474 1.741.726 2.641.251.9.474 1.732.668 2.495h.029c.29-.783.59-1.624.9-2.524.329-.92.648-1.81.958-2.67.31-.88.58-1.663.813-2.348.232-.685.387-1.193.464-1.526.174-.626.242-1.076.203-1.35-.038-.273-.106-.41-.203-.41h5.777c-.135 0-.329.127-.58.381-.252.254-.513.704-.784 1.35-.136.352-.358.87-.668 1.555-.31.685-.648 1.448-1.016 2.289l-1.103 2.524c-.368.84-.697 1.604-.987 2.288a24.528 24.528 0 0 0-.58 1.585c-.195.626-.272 1.076-.233 1.35.038.274.116.41.232.41h-6.474c.116 0 .194-.136.232-.41.039-.274-.038-.724-.232-1.35a35.54 35.54 0 0 1-.348-1.203c-.155-.626-.349-1.38-.581-2.26-.232-.9-.474-1.829-.726-2.787a407.67 407.67 0 0 0-.726-2.73h-.087c-.232.822-.474 1.703-.725 2.642-.252.92-.494 1.819-.726 2.7-.233.86-.446 1.623-.639 2.288-.174.646-.29 1.096-.349 1.35-.174.645-.242 1.105-.203 1.38.04.253.107.38.204.38h-6.475Zm30.022.294c-2.032 0-3.63-.284-4.79-.851-1.142-.567-1.946-1.38-2.41-2.435-.465-1.076-.697-2.358-.697-3.845 0-2.21.61-3.961 1.829-5.252 1.22-1.291 3.087-1.937 5.603-1.937 1.471 0 2.662.206 3.571.616.93.411 1.636.959 2.12 1.644.483.684.812 1.447.986 2.288.194.822.29 1.654.29 2.495v1.379c0-.059-.27-.117-.812-.176-.523-.078-1.413-.117-2.671-.117h-6.735c0 1.075.319 1.887.958 2.435.658.528 1.722.792 3.193.792 1.239 0 2.342-.146 3.31-.44.987-.313 1.703-.606 2.148-.88v.88l.29 2.23c-.367.254-1.074.519-2.119.793-1.045.254-2.4.38-4.064.38Zm-2.642-8.715h5.022c0-.43-.096-.851-.29-1.262a2.155 2.155 0 0 0-.87-.998c-.407-.273-.969-.41-1.685-.41-1.064 0-1.829.224-2.293.674-.465.45-.697.92-.697 1.409 0 .196.058.342.174.44.116.098.33.147.639.147Zm16.153 8.715c-1.335 0-2.303-.284-2.903-.851-.6-.587-.9-1.536-.9-2.846v-7.395h-2.613v-2.934c.89 0 1.587-.108 2.09-.323.504-.235.862-.636 1.075-1.203.213-.568.319-1.36.319-2.377h3.252v3.903h4.964c-.135.39-.271.88-.406 1.467a7.487 7.487 0 0 0-.175 1.467h-4.383v5.78c0 .9.067 1.517.203 1.85.135.332.455.498.958.498.329 0 .687-.117 1.074-.352a6.755 6.755 0 0 0 1.161-.85c.387-.353.707-.686.958-.998v.91l.291 2.846c-.349.312-.958.625-1.829.938-.871.314-1.916.47-3.136.47Zm5.679-.294c.136 0 .262-.136.378-.41.135-.274.203-.724.203-1.35v-9.918c0-.626-.068-1.067-.203-1.32-.116-.275-.242-.421-.378-.44.852 0 1.723-.06 2.613-.177.891-.137 1.587-.274 2.091-.41v1.173l-.058.499.058.058c.135-.215.348-.45.638-.704.31-.274.697-.508 1.162-.704.484-.215 1.045-.323 1.683-.323.949 0 1.791.137 2.526.411.736.254 1.258.518 1.568.792l-.871 3.932v.88c-.29-.41-.687-.83-1.19-1.261a7.177 7.177 0 0 0-1.626-1.086 3.947 3.947 0 0 0-1.8-.44c-.697 0-1.219.254-1.568.763-.348.509-.522 1.31-.522 2.406v5.869c0 .626.058 1.076.174 1.35.135.274.271.41.406.41h-5.284Zm17.711.294c-1.742 0-3.136-.342-4.181-1.027-1.026-.704-1.538-1.83-1.538-3.375 0-1.075.27-1.946.813-2.611.541-.665 1.277-1.154 2.206-1.467.948-.333 2.022-.5 3.222-.5 1.336 0 2.381.157 3.136.47.755.313 1.229.528 1.423.646 0-1.213-.213-2.103-.639-2.67-.426-.568-1.249-.851-2.468-.851-1.181 0-2.226.117-3.135.352-.91.234-1.655.508-2.236.821-.561.313-.948.577-1.161.793v-.88l-.29-2.876c.135-.079.493-.206 1.074-.382.58-.176 1.374-.342 2.38-.499 1.007-.176 2.207-.264 3.6-.264 1.916 0 3.378.284 4.384.851 1.007.548 1.694 1.34 2.061 2.377.387 1.037.581 2.289.581 3.756v5.282c0 .548.058.949.174 1.203.136.235.271.42.407.558h-4.703v-.617l.058-.557-.058-.059c-.31.333-.9.675-1.771 1.027-.852.333-1.965.499-3.339.499Zm1.364-2.964c1.2 0 2.12-.137 2.758-.41.659-.294.988-.666.988-1.116 0-.45-.339-.821-1.017-1.115-.658-.293-1.558-.44-2.7-.44-1.103 0-1.887.157-2.351.47-.445.313-.668.704-.668 1.173 0 .587.261.978.784 1.174.523.176 1.258.264 2.206.264Zm9.676 2.67c.136 0 .261-.136.378-.41.135-.274.203-.724.203-1.35v-9.918c0-.626-.068-1.067-.203-1.32-.117-.275-.242-.421-.378-.44.852 0 1.723-.06 2.613-.177.89-.137 1.587-.274 2.09-.41v1.79l-.057.38.057.06c.058-.138.242-.382.552-.734.31-.352.755-.685 1.335-.998.581-.332 1.297-.499 2.148-.499 1.8 0 3.175.519 4.123 1.555.968 1.037 1.452 2.66 1.452 4.871v5.84c0 .626.058 1.076.174 1.35.136.274.271.41.407.41h-5.284c.135 0 .261-.136.377-.41.135-.274.203-.724.203-1.35v-5.751c0-1.39-.212-2.328-.639-2.817a2.027 2.027 0 0 0-1.625-.763c-.833 0-1.577.303-2.235.91-.658.586-.988 1.564-.988 2.934v5.487c0 .626.058 1.076.175 1.35.135.274.271.41.406.41h-5.284Zm23.392.294c-1.722 0-3.175-.098-4.355-.294-1.18-.195-1.993-.39-2.438-.586v-.88l-.611-2.876c.504.371 1.443.743 2.817 1.115 1.374.371 3.058.557 5.052.557.909 0 1.538-.088 1.887-.264.367-.176.551-.48.551-.91 0-.332-.126-.586-.378-.762-.231-.177-.658-.313-1.276-.411-.62-.118-1.52-.254-2.701-.411-1.49-.196-2.671-.47-3.541-.822-.872-.371-1.49-.84-1.858-1.408-.349-.587-.523-1.301-.523-2.142 0-.783.184-1.487.552-2.113.386-.646 1.045-1.154 1.973-1.526.949-.391 2.265-.587 3.949-.587 1.587 0 2.98.098 4.18.294 1.2.195 2.062.39 2.584.587v.88l.581 2.582c-.446-.293-1.316-.597-2.613-.91-1.296-.313-2.942-.47-4.935-.47-.774 0-1.326.08-1.655.236-.329.156-.494.43-.494.821 0 .255.106.47.32.646.213.156.629.303 1.248.44.639.137 1.587.294 2.845.47 1.645.215 2.884.518 3.716.91.832.37 1.394.84 1.684 1.408.29.547.436 1.213.436 1.995 0 1.506-.562 2.622-1.684 3.345-1.123.724-2.894 1.086-5.313 1.086Zm8.694-.294c.135 0 .261-.136.377-.41.135-.274.203-.724.203-1.35v-9.038h-2.613v-2.934h2.904l.028-.059c-.057-.098-.173-.42-.348-.968-.174-.568-.261-1.233-.261-1.996 0-1.545.436-2.66 1.307-3.345.89-.685 2.099-1.027 3.629-1.027 1.238 0 2.332.069 3.28.205.949.118 1.636.245 2.062.382v.91l.581 3.198c-.35-.254-.805-.509-1.365-.763a9.817 9.817 0 0 0-1.742-.675 6.146 6.146 0 0 0-1.859-.293c-.619 0-1.064.147-1.335.44-.251.293-.377.724-.377 1.291v1.82c0 .43.038.684.115.762.078.079.339.118.784.118h4.355c-.135.176-.27.518-.407 1.027-.115.489-.173 1.124-.173 1.907h-4.384v9.038c0 .626.058 1.076.174 1.35.136.274.271.41.406.41h-5.341Zm16.858.294c-2.033 0-3.63-.284-4.79-.851-1.143-.567-1.946-1.38-2.411-2.435-.463-1.076-.696-2.358-.696-3.845 0-2.21.609-3.961 1.829-5.252 1.219-1.291 3.087-1.937 5.603-1.937 1.471 0 2.661.206 3.571.616.929.411 1.636.959 2.119 1.644a6.05 6.05 0 0 1 .988 2.288c.193.822.29 1.654.29 2.495v1.379c0-.059-.272-.117-.813-.176-.522-.078-1.413-.117-2.672-.117h-6.734c0 1.075.319 1.887.957 2.435.658.528 1.724.792 3.194.792 1.239 0 2.342-.146 3.309-.44.988-.313 1.703-.606 2.15-.88v.88l.29 2.23c-.368.254-1.074.519-2.119.793-1.046.254-2.401.38-4.065.38Zm-2.642-8.715h5.022c0-.43-.097-.851-.29-1.262a2.162 2.162 0 0 0-.871-.998c-.407-.273-.968-.41-1.684-.41-1.064 0-1.829.224-2.294.674-.464.45-.696.92-.696 1.409 0 .196.058.342.174.44.116.098.329.147.639.147Zm10.434 8.421c.136 0 .261-.136.377-.41.136-.274.203-.724.203-1.35v-9.918c0-.626-.067-1.067-.203-1.32-.116-.275-.241-.421-.377-.44a20 20 0 0 0 2.613-.177c.891-.137 1.587-.274 2.09-.41v1.173l-.059.499.059.058c.136-.215.348-.45.638-.704a4.207 4.207 0 0 1 1.162-.704c.484-.215 1.045-.323 1.683-.323.95 0 1.791.137 2.527.411.735.254 1.257.518 1.567.792l-.871 3.932v.88c-.291-.41-.687-.83-1.19-1.261a7.155 7.155 0 0 0-1.626-1.086 3.944 3.944 0 0 0-1.8-.44c-.697 0-1.219.254-1.568.763s-.522 1.31-.522 2.406v5.869c0 .626.058 1.076.173 1.35.137.274.272.41.407.41h-5.283Z"/>
</svg>
