<svg xmlns="http://www.w3.org/2000/svg" width="256" height="139" fill="none" viewBox="0 0 256 139">
  <path fill="#67718E" d="M104.315 79.833v.19h-8.05v-.19c.905-.159 1.262-.381 1.358-1.08V68.198c0-1.94-.71-2.894-2.165-2.894-.481.01-.947.168-1.33.454a2.244 2.244 0 0 0-.806 1.136c.066.367.099.74.097 1.113v9.922c0 1.176.356 1.654 1.453 1.907v.191h-7.694v-.195c1.1-.252 1.453-.731 1.453-1.907v-9.731c0-1.94-.744-2.894-2.167-2.894a2.19 2.19 0 0 0-1.257.41c-.365.262-.637.63-.779 1.052v11.162c0 1.177.355 1.654 1.452 1.908v.19h-8.146v-.19c1.26-.285 1.907-.827 1.907-2.1V67.594c0-1.686-.452-2.195-1.907-2.322v-.191l6.691-1.813v2.99a4.315 4.315 0 0 1 1.653-2.26 4.434 4.434 0 0 1 2.712-.794c2.424 0 3.944 1.209 4.428 3.181a4.629 4.629 0 0 1 1.76-2.339 4.754 4.754 0 0 1 2.83-.841c3.007 0 4.591 1.908 4.591 4.802v9.731c.009 1.271.655 1.813 1.916 2.094Zm17.102-3.27c-.549 2.605-2.263 3.943-4.527 3.943a3.139 3.139 0 0 1-2.277-.706c-.313-.26-.57-.58-.756-.939a2.993 2.993 0 0 1-.329-1.153l-.064-.252a4.379 4.379 0 0 1-1.701 2.274 4.496 4.496 0 0 1-2.759.776 4.08 4.08 0 0 1-1.639-.21 4.03 4.03 0 0 1-1.415-.84 3.96 3.96 0 0 1-.951-1.33 3.892 3.892 0 0 1-.327-1.594c0-2.83 2.328-4.675 6.045-5.439l2.683-.54v-.672c0-2.45-.905-4.134-3.621-4.134-2.1 0-3.587.986-4.299 3.466l-.256-.064c.512-3.657 2.973-5.947 6.788-5.947 4.3 0 6.175 2.704 6.175 6.774v6.392c0 1.113.549 1.685 1.26 1.685.615 0 1.325-.35 1.681-1.525l.289.035Zm-8.017.35v-5.566l-1.26.223c-2.522.509-3.006 2.067-3.006 3.625 0 1.622.808 2.894 2.359 2.894a1.92 1.92 0 0 0 1.15-.28 1.87 1.87 0 0 0 .757-.896Z"/>
  <path fill="#67718E" d="M138.972 79.834v.19h-8.146v-.19c1.067-.252 1.452-.73 1.452-1.907v-9.695c0-1.94-.743-2.926-2.262-2.926a2.644 2.644 0 0 0-1.452.418c-.431.277-.77.674-.973 1.14V77.93c0 1.176.356 1.654 1.453 1.907v.191h-8.146v-.195c1.261-.285 1.908-.827 1.908-2.1V67.595c0-1.686-.453-2.195-1.908-2.322v-.191l6.692-1.813v3.119a4.67 4.67 0 0 1 1.83-2.383 4.797 4.797 0 0 1 2.925-.8c3.075 0 4.72 1.85 4.72 4.834v9.7c.001 1.271.647 1.813 1.907 2.094Zm10.993-3.558c-.711 2.321-2.457 4.23-5.269 4.23-2.716 0-4.009-1.686-4.009-4.166V64.382h-1.875v-.159a20.726 20.726 0 0 0 6.563-5.723h.129v5.247h3.265v.635H145.5v11.226c0 1.463.615 2.449 1.81 2.449a2.48 2.48 0 0 0 1.529-.528c.435-.34.739-.816.863-1.349l.263.096Z"/>
  <path fill="#67718E" d="M163.381 74.273c-.809 4.58-3.75 6.233-6.563 6.233-3.75 0-7.175-2.862-7.175-8.332 0-5.215 2.942-8.968 7.37-8.968 3.135 0 6.369 1.94 6.336 7.188h-9.957c.324 4.07 2.457 6.328 5.594 6.328a4.14 4.14 0 0 0 2.508-.575 4.042 4.042 0 0 0 1.661-1.937l.226.063Zm-10.022-5.027v.35h5.592c.033-4.071-1.034-5.502-2.648-5.502-1.812.003-2.944 1.974-2.944 5.152Zm22.403-6.04v4.58h-.161a3.606 3.606 0 0 0-1.681-.287c-2.101 0-3.492 1.114-3.492 5.343v4.898c0 1.428.809 1.875 2.553 2.1v.191h-9.245v-.197c1.261-.286 1.908-.827 1.908-2.1V67.88c0-1.813-.486-2.449-1.908-2.576v-.19l6.498-1.845v7.124h.162c.257-5.12 2.198-7.188 5.011-7.188h.355Zm-1.422 14.629a2.629 2.629 0 0 1 .8-1.842 2.715 2.715 0 0 1 1.883-.763 2.705 2.705 0 0 1 1.862.773c.495.486.777 1.144.786 1.832a2.6 2.6 0 0 1-.77 1.858 2.69 2.69 0 0 1-2.906.582 2.675 2.675 0 0 1-1.453-1.43 2.585 2.585 0 0 1-.202-1.01Z"/>
</svg>
