<svg xmlns="http://www.w3.org/2000/svg" width="256" height="139" fill="none" viewBox="0 0 256 139">
  <path fill="#67718E" d="m92.756 72.466 3.575-.987a3.034 3.034 0 0 0 1.023 2.058 3.578 3.578 0 0 0 2.499.833 3.093 3.093 0 0 0 1.909-.526 1.564 1.564 0 0 0 .691-1.296 1.453 1.453 0 0 0-.513-1.116 3.116 3.116 0 0 0-1.523-.654l-2.567-.582a6.27 6.27 0 0 1-3.445-1.899 4.817 4.817 0 0 1-1.206-3.267c0-.751.165-1.493.485-2.17a5.034 5.034 0 0 1 1.363-1.75 6.577 6.577 0 0 1 4.52-1.635 8.381 8.381 0 0 1 2.488.348 6.215 6.215 0 0 1 1.821.858 5.65 5.65 0 0 1 1.204 1.189c.3.388.55.814.745 1.266.153.373.262.763.324 1.162l-3.397.987a2.707 2.707 0 0 0-.242-.816 3.672 3.672 0 0 0-.536-.817 2.471 2.471 0 0 0-.97-.663 3.766 3.766 0 0 0-1.436-.255 2.71 2.71 0 0 0-1.788.589 1.76 1.76 0 0 0-.711 1.402 1.6 1.6 0 0 0 .48 1.16c.353.34.8.563 1.283.64l2.615.543a6.688 6.688 0 0 1 3.614 1.85 4.553 4.553 0 0 1 1.257 3.22c0 .723-.139 1.439-.41 2.108a6.35 6.35 0 0 1-1.178 1.877 5.523 5.523 0 0 1-2.032 1.38 7.285 7.285 0 0 1-2.818.525 8.466 8.466 0 0 1-3.175-.564 5.903 5.903 0 0 1-2.214-1.452 7.361 7.361 0 0 1-1.232-1.784 5.352 5.352 0 0 1-.503-1.762Zm13.572-8.783V60.02h.889a2.528 2.528 0 0 0 1.996-.757 2.88 2.88 0 0 0 .676-1.994v-2.645h3.732v5.396h3.591v3.662h-3.591v8.148a2.286 2.286 0 0 0 .529 1.685 2.314 2.314 0 0 0 1.678.52 7.08 7.08 0 0 0 1.423-.141v3.42a6.635 6.635 0 0 1-2.539.383 5.14 5.14 0 0 1-3.809-1.387 5.175 5.175 0 0 1-1.391-3.829v-8.8h-3.184Zm11.907 9.118a4.713 4.713 0 0 1 1.44-3.607 6.882 6.882 0 0 1 3.784-1.703l4.443-.684c.855-.109 1.283-.502 1.283-1.179a2.248 2.248 0 0 0-.817-1.794 3.706 3.706 0 0 0-2.453-.697 3.496 3.496 0 0 0-2.497.874 3.426 3.426 0 0 0-1.07 2.227l-3.752-.84a6.276 6.276 0 0 1 .695-2.321 6.2 6.2 0 0 1 1.524-1.875 7.393 7.393 0 0 1 5.045-1.727 9.922 9.922 0 0 1 3.42.542 5.763 5.763 0 0 1 2.332 1.488 6.155 6.155 0 0 1 1.271 2.128c.282.827.421 1.696.413 2.57v8.48c-.014.94.061 1.878.225 2.802h-3.897a8.162 8.162 0 0 1-.198-2.225 5.925 5.925 0 0 1-2.062 1.962 6.284 6.284 0 0 1-3.279.806 5.89 5.89 0 0 1-4.233-1.538 4.887 4.887 0 0 1-1.203-1.668 4.929 4.929 0 0 1-.414-2.02Zm4.113-.299a2.168 2.168 0 0 0 .669 1.6 2.55 2.55 0 0 0 1.854.655 5.438 5.438 0 0 0 1.652-.237 4.14 4.14 0 0 0 1.366-.735 3.21 3.21 0 0 0 .957-1.402 6.12 6.12 0 0 0 .339-2.146v-.789l-4.51.698a3.21 3.21 0 0 0-1.688.76 2.072 2.072 0 0 0-.639 1.593v.003Zm13.728 4.986V60.02h3.975v2.177a4.787 4.787 0 0 1 2.137-1.978 6.62 6.62 0 0 1 2.969-.706 6.37 6.37 0 0 1 3.159.773 4.81 4.81 0 0 1 2.072 2.254 6.131 6.131 0 0 1 2.382-2.308 6.05 6.05 0 0 1 3.223-.719 6.27 6.27 0 0 1 2.234.394 5.904 5.904 0 0 1 1.903 1.174 5.311 5.311 0 0 1 1.359 2.093c.349.953.518 1.963.502 2.978v11.335h-3.869V66.784a3.936 3.936 0 0 0-.831-2.623 3.075 3.075 0 0 0-2.492-.987 3.294 3.294 0 0 0-2.588 1.119 4.01 4.01 0 0 0-.996 2.772v10.423h-4.112V66.784a3.973 3.973 0 0 0-.823-2.614 3.06 3.06 0 0 0-2.5-.996 3.319 3.319 0 0 0-2.606 1.096 4.039 4.039 0 0 0-.979 2.798v10.423l-4.119-.003Zm28.877 6.817V60.021h4.009v2.34a5.094 5.094 0 0 1 2.13-1.97 7.057 7.057 0 0 1 3.357-.772 7.21 7.21 0 0 1 3.222.588 7.274 7.274 0 0 1 2.638 1.957 9.88 9.88 0 0 1 2.133 6.564 9.783 9.783 0 0 1-2.229 6.61 7.428 7.428 0 0 1-2.659 1.973 7.374 7.374 0 0 1-3.245.617 7.092 7.092 0 0 1-3.159-.675 5.279 5.279 0 0 1-2.087-1.72v8.77l-4.11.002Zm4.078-15.574a5.976 5.976 0 0 0 1.299 4.011c.408.492.919.885 1.499 1.15a4.17 4.17 0 0 0 1.844.375 4.203 4.203 0 0 0 1.85-.371 4.252 4.252 0 0 0 1.507-1.145 5.96 5.96 0 0 0 1.298-4.02 5.836 5.836 0 0 0-1.29-3.95 4.25 4.25 0 0 0-1.516-1.134 4.218 4.218 0 0 0-1.853-.36 4.192 4.192 0 0 0-1.841.37 4.223 4.223 0 0 0-1.501 1.138 5.817 5.817 0 0 0-1.296 3.933v.003Zm13.711 3.735 3.575-.987a3.038 3.038 0 0 0 1.024 2.058 3.579 3.579 0 0 0 2.5.833 3.092 3.092 0 0 0 1.908-.526 1.564 1.564 0 0 0 .691-1.296 1.442 1.442 0 0 0-.513-1.116 3.114 3.114 0 0 0-1.523-.654l-2.566-.582a6.26 6.26 0 0 1-3.444-1.899 4.818 4.818 0 0 1-1.208-3.267 5.048 5.048 0 0 1 1.849-3.92 6.577 6.577 0 0 1 4.52-1.635c.842-.01 1.68.108 2.488.348a6.188 6.188 0 0 1 1.82.858c.459.333.866.734 1.206 1.189.3.388.549.814.744 1.266.153.373.261.763.324 1.162l-3.396.987a2.767 2.767 0 0 0-.242-.816 3.69 3.69 0 0 0-.538-.817 2.468 2.468 0 0 0-.969-.663 3.763 3.763 0 0 0-1.437-.255 2.71 2.71 0 0 0-1.787.589 1.763 1.763 0 0 0-.711 1.402 1.6 1.6 0 0 0 .479 1.16c.354.34.802.563 1.283.64l2.615.543a6.695 6.695 0 0 1 3.616 1.85 4.56 4.56 0 0 1 1.255 3.22 5.61 5.61 0 0 1-.41 2.108 6.326 6.326 0 0 1-1.179 1.877 5.505 5.505 0 0 1-2.032 1.38 7.274 7.274 0 0 1-2.817.525 8.461 8.461 0 0 1-3.175-.564 5.895 5.895 0 0 1-2.212-1.452 7.365 7.365 0 0 1-1.233-1.784 5.412 5.412 0 0 1-.505-1.762ZM62.89 59.703a.728.728 0 0 0 .038-.148 3.584 3.584 0 0 1 1.279-2.281 3.5 3.5 0 0 1 1.709-.74.627.627 0 0 0 .121-.032c.123-.012.246-.019.37-.018a3.467 3.467 0 0 1 2.315.87 3.53 3.53 0 0 1 1.162 2.201.538.538 0 0 0 .537.49h.128a.536.536 0 0 0 .537-.49 3.508 3.508 0 0 1 1.15-2.199 3.445 3.445 0 0 1 2.305-.872 3.467 3.467 0 0 1 2.316.87 3.53 3.53 0 0 1 1.162 2.201.537.537 0 0 0 .537.49h.099a.536.536 0 0 0 .537-.49 3.528 3.528 0 0 1 1.153-2.194 3.465 3.465 0 0 1 4.751.131 3.555 3.555 0 0 1 .13 4.802 3.472 3.472 0 0 1-2.173 1.164.528.528 0 0 0-.35.174.533.533 0 0 0-.136.368v.1a.539.539 0 0 0 .486.542c.844.109 1.62.526 2.18 1.172.561.647.868 1.479.863 2.338a3.517 3.517 0 0 1-.865 2.328 3.455 3.455 0 0 1-2.178 1.16.528.528 0 0 0-.35.174.535.535 0 0 0-.136.368v.13a.54.54 0 0 0 .137.367c.09.1.215.163.349.175.844.109 1.62.526 2.18 1.172a3.536 3.536 0 0 1 .846 2.68.724.724 0 0 0-.039.147 3.578 3.578 0 0 1-1.278 2.282 3.503 3.503 0 0 1-1.71.74.746.746 0 0 0-.12.03 3.466 3.466 0 0 1-2.686-.85 3.528 3.528 0 0 1-1.16-2.202.539.539 0 0 0-.174-.352.528.528 0 0 0-.364-.138h-.128a.527.527 0 0 0-.537.49 3.508 3.508 0 0 1-1.15 2.2 3.445 3.445 0 0 1-2.306.872 3.466 3.466 0 0 1-2.315-.87 3.529 3.529 0 0 1-1.162-2.202.54.54 0 0 0-.173-.352.528.528 0 0 0-.365-.138h-.098a.526.526 0 0 0-.365.138.536.536 0 0 0-.172.352 3.526 3.526 0 0 1-1.153 2.195 3.463 3.463 0 0 1-2.302.877 3.489 3.489 0 0 1-2.456-1.009 3.555 3.555 0 0 1-.13-4.801 3.473 3.473 0 0 1 2.174-1.164.528.528 0 0 0 .487-.543v-.1a.54.54 0 0 0-.138-.367.53.53 0 0 0-.35-.174 3.475 3.475 0 0 1-2.18-1.173 3.538 3.538 0 0 1-.862-2.337 3.517 3.517 0 0 1 .864-2.329 3.454 3.454 0 0 1 2.179-1.16.528.528 0 0 0 .487-.542v-.13a.54.54 0 0 0-.138-.367.53.53 0 0 0-.35-.175 3.475 3.475 0 0 1-2.18-1.172 3.538 3.538 0 0 1-.845-2.68h.006Zm3.029-4.309a.812.812 0 0 0-.13-.023 4.655 4.655 0 0 0-2.968 1.684 4.705 4.705 0 0 0-1.043 2.371.703.703 0 0 0 .018.113 4.57 4.57 0 0 0-.023.454c.008.84.236 1.663.663 2.385a4.704 4.704 0 0 0 1.767 1.719c-.73.404-1.34.998-1.767 1.72a4.763 4.763 0 0 0-.663 2.385c.008.84.236 1.663.663 2.385a4.704 4.704 0 0 0 1.767 1.719 4.64 4.64 0 0 0-1.775 1.714 4.698 4.698 0 0 0-.639 2.779.583.583 0 0 0-.014.18 4.71 4.71 0 0 0 1.331 2.709 4.633 4.633 0 0 0 2.682 1.343c.061.005.122 0 .181-.014a4.586 4.586 0 0 0 2.752-.644 4.644 4.644 0 0 0 1.697-1.793 4.7 4.7 0 0 0 1.703 1.784c.715.431 1.53.662 2.363.67a4.649 4.649 0 0 0 2.363-.67 4.707 4.707 0 0 0 1.703-1.784 4.7 4.7 0 0 0 1.703 1.784c.714.431 1.53.662 2.362.67.147 0 .297-.008.437-.022a.722.722 0 0 0 .131.022 4.644 4.644 0 0 0 2.962-1.682 4.704 4.704 0 0 0 1.043-2.372.737.737 0 0 0-.018-.113 4.52 4.52 0 0 0 .022-.453 4.759 4.759 0 0 0-.662-2.385 4.701 4.701 0 0 0-1.767-1.72 4.705 4.705 0 0 0 1.767-1.719 4.76 4.76 0 0 0 .662-2.385 4.759 4.759 0 0 0-.662-2.385 4.701 4.701 0 0 0-1.767-1.72 4.64 4.64 0 0 0 1.775-1.714 4.698 4.698 0 0 0 .64-2.778.646.646 0 0 0 .013-.181 4.702 4.702 0 0 0-1.332-2.708 4.624 4.624 0 0 0-2.68-1.344.57.57 0 0 0-.182.014 4.586 4.586 0 0 0-2.752.644 4.645 4.645 0 0 0-1.697 1.793 4.707 4.707 0 0 0-1.703-1.784 4.65 4.65 0 0 0-2.363-.669 4.648 4.648 0 0 0-2.363.67 4.705 4.705 0 0 0-1.703 1.783 4.706 4.706 0 0 0-1.703-1.784 4.65 4.65 0 0 0-2.363-.669c-.147 0-.296.007-.436.021h.005Z"/>
  <path fill="#67718E" d="m83.21 81.909-.092-.007c-.037 0-.076-.008-.113-.013a5.39 5.39 0 0 1-3.224-.798 5.642 5.642 0 0 1-1.226-1.023 5.551 5.551 0 0 1-1.844 1.348 5.5 5.5 0 0 1-2.226.487 5.391 5.391 0 0 1-2.836-.812 5.659 5.659 0 0 1-1.222-1.02c-.355.397-.765.74-1.217 1.02a5.432 5.432 0 0 1-2.855.812c-.115 0-.23 0-.345-.011-.095.012-.19.014-.286.006h-.05a5.49 5.49 0 0 1-3.175-1.59 5.585 5.585 0 0 1-1.575-3.205v-.052a1.558 1.558 0 0 1 .006-.289 5.56 5.56 0 0 1 1.804-4.459 5.649 5.649 0 0 1-1.01-1.233 5.52 5.52 0 0 1-.804-2.864c.005-.774.169-1.54.482-2.246a5.6 5.6 0 0 1 1.334-1.863 5.667 5.667 0 0 1-1.012-1.236 5.52 5.52 0 0 1-.788-3.28 1.25 1.25 0 0 1-.01-.084l-.006-.092.012-.091a5.57 5.57 0 0 1 1.233-2.809 5.49 5.49 0 0 1 3.513-1.993l.091-.013.092.007c.037 0 .075.008.112.013a5.4 5.4 0 0 1 3.225.798c.455.28.867.625 1.225 1.023a5.55 5.55 0 0 1 1.844-1.348 5.505 5.505 0 0 1 2.226-.487 5.4 5.4 0 0 1 2.837.812c.453.28.865.624 1.222 1.02.355-.397.765-.74 1.217-1.02a5.431 5.431 0 0 1 3.2-.801c.095-.012.19-.014.287-.006h.048a5.483 5.483 0 0 1 3.176 1.59 5.595 5.595 0 0 1 1.574 3.206v.049c.007.097.005.194-.007.29a5.561 5.561 0 0 1-1.804 4.459c.394.36.734.776 1.01 1.233a5.52 5.52 0 0 1 .805 2.863 5.645 5.645 0 0 1-.482 2.247 5.596 5.596 0 0 1-1.335 1.863c.394.36.735.777 1.013 1.235a5.528 5.528 0 0 1 .788 3.28c0 .028.007.057.01.085l.006.091-.013.092a5.568 5.568 0 0 1-1.231 2.809 5.491 5.491 0 0 1-3.515 1.993l-.09.013Zm-3.266-5.159a2.65 2.65 0 0 0 .877 1.655 2.604 2.604 0 0 0 1.745.65c.07 0 .139 0 .208-.008a1.66 1.66 0 0 1 .14-.03h.026c.47-.067.912-.26 1.283-.557.526-.43.871-1.045.965-1.722v-.025a1.76 1.76 0 0 1 .038-.175c0-.057.006-.114.006-.171a2.662 2.662 0 0 0-.644-1.762 2.615 2.615 0 0 0-1.64-.886 1.38 1.38 0 0 1-.89-.46 1.411 1.411 0 0 1-.355-.945v-.13a1.403 1.403 0 0 1 .34-.928c.222-.257.53-.423.865-.466h.05a2.6 2.6 0 0 0 1.626-.878 2.647 2.647 0 0 0 .645-1.744 2.66 2.66 0 0 0-.644-1.76 2.615 2.615 0 0 0-1.64-.888 1.386 1.386 0 0 1-.89-.459 1.411 1.411 0 0 1-.355-.945v-.1a1.403 1.403 0 0 1 .34-.928c.222-.257.53-.423.865-.467h.05a2.633 2.633 0 0 0 1.618-.884A2.68 2.68 0 0 0 85.227 60a2.678 2.678 0 0 0-.747-1.863 2.624 2.624 0 0 0-1.846-.755 2.594 2.594 0 0 0-1.727.651 2.641 2.641 0 0 0-.87 1.642v.05a1.399 1.399 0 0 1-.462.873 1.374 1.374 0 0 1-.92.344h-.099a1.383 1.383 0 0 1-.936-.358 1.408 1.408 0 0 1-.456-.9 2.654 2.654 0 0 0-.878-1.655 2.606 2.606 0 0 0-1.745-.65 2.594 2.594 0 0 0-1.727.651 2.64 2.64 0 0 0-.869 1.642v.05a1.4 1.4 0 0 1-.462.873 1.375 1.375 0 0 1-.92.344h-.127a1.383 1.383 0 0 1-.936-.358 1.408 1.408 0 0 1-.456-.9 2.654 2.654 0 0 0-.879-1.655 2.607 2.607 0 0 0-1.744-.65c-.07 0-.14 0-.209.01a1.578 1.578 0 0 1-.14.03h-.025a2.63 2.63 0 0 0-1.284.556 2.689 2.689 0 0 0-.964 1.721v.025c-.01.06-.023.118-.039.176 0 .056-.005.114-.005.171a2.66 2.66 0 0 0 .644 1.761c.42.488 1.003.804 1.639.887a1.403 1.403 0 0 1 1.245 1.404v.13c.003.34-.118.671-.34.928a1.376 1.376 0 0 1-.864.467h-.052a2.6 2.6 0 0 0-1.626.877 2.647 2.647 0 0 0-.645 1.744 2.66 2.66 0 0 0 .644 1.761c.42.488 1.003.803 1.639.886.343.037.66.2.89.46.23.26.357.597.355.945v.1a1.4 1.4 0 0 1-.34.928 1.379 1.379 0 0 1-.864.467h-.05a2.633 2.633 0 0 0-1.618.885 2.68 2.68 0 0 0-.653 1.737 2.673 2.673 0 0 0 .747 1.862 2.62 2.62 0 0 0 1.847.755 2.627 2.627 0 0 0 1.72-.66c.476-.42.787-1 .876-1.633v-.025l.005-.026a1.4 1.4 0 0 1 .462-.873c.255-.224.582-.346.92-.343h.099c.345-.002.679.125.936.358.257.232.42.553.456.9.082.64.395 1.23.878 1.654a2.605 2.605 0 0 0 1.745.65 2.593 2.593 0 0 0 1.727-.651 2.64 2.64 0 0 0 .87-1.642v-.025l.004-.025a1.4 1.4 0 0 1 .462-.874c.255-.224.582-.346.92-.343h.128a1.389 1.389 0 0 1 1.383 1.259Z"/>
  <path fill="#67718E" d="M74.496 71.603a4.676 4.676 0 0 1-1.817-.362A4.711 4.711 0 0 1 71.14 70.2a4.763 4.763 0 0 1-1.031-1.554 4.803 4.803 0 0 1-.359-1.835c0-.282.111-.553.309-.752a1.049 1.049 0 0 1 1.49 0c.197.2.308.47.308.752 0 .706.28 1.383.774 1.883.495.5 1.166.78 1.865.781.7 0 1.371-.282 1.866-.781.495-.5.773-1.177.774-1.883a1.072 1.072 0 0 1 .309-.753 1.053 1.053 0 0 1 .745-.311c.28 0 .547.112.745.312.197.2.308.47.308.752a4.8 4.8 0 0 1-1.39 3.388 4.677 4.677 0 0 1-3.357 1.403Z"/>
</svg>
