<svg xmlns="http://www.w3.org/2000/svg" width="256" height="139" fill="none" viewBox="0 0 256 139">
  <path fill="#67718E" d="M68.747 79.106c4.449 0 8.284-2.295 8.284-6.326 0-8.93-12.395-4.651-12.395-11.318 0-1.768 1.135-3.194 3.467-3.194 4.48 0 3.344 5.52 6.657 5.52 1.32 0 1.964-.745 1.964-1.923.03-2.574-3.375-5.365-8.529-5.365-5.062 0-8.13 2.729-8.13 6.45.03 9.179 12.425 4.651 12.425 11.256 0 1.892-1.411 3.132-3.559 3.132-5.185 0-4.356-5.643-7.424-5.705-1.258 0-1.841.806-1.841 1.891 0 2.48 3.252 5.582 9.081 5.582Zm23.75-3.473v-11.35c0-.527-.368-.65-1.166-.558l-3.927.59c-.368.061-.613.34-.613.65v.094c0 .682 1.227.992 1.227 2.356v6.295c0 2.202-1.166 3.628-2.639 3.628-1.687 0-2.546-1.333-2.546-4.217l.092-8.838c0-.527-.46-.65-1.258-.558l-3.866.59c-.398.061-.644.34-.644.65v.094c0 .682 1.197.992 1.197 2.356v5.24c0 4.25 2.546 6.45 5.706 6.45 2.117 0 3.62-.774 4.449-2.139.092 1.52.981 2.016 2.73 2.016 1.718 0 2.73-.186 2.73-.9 0-1.147-1.472 0-1.472-2.45Zm15.032-11.722c-3.129 0-4.142-.31-6.105-.31-4.296 0-7.272 2.636-7.272 6.512 0 3.535 3.069 6.14 7.18 6.14.398 0 .797-.031 1.196-.062 1.197.248 1.902 1.302 1.902 2.853 0 1.736-1.196 2.915-3.098 2.915-3.59-.062-2.915-4.714-5.43-4.714-1.259 0-1.81.869-1.81 1.737 0 2.418 2.638 4.28 7.148 4.28 4.356 0 7.7-1.706 7.7-4.342 0-1.644-.951-2.915-3.681-3.535 2.117-1.024 3.436-2.946 3.436-5.396 0-1.488-.737-2.946-1.718-3.97.951-.278 2.117-.154 2.331-1.177.184-.559-.122-.93-1.779-.93Zm-9.05 4.156c0-1.892.858-3.101 2.27-3.101 2.147 0 3.589 3.814 3.589 6.79 0 1.83-.859 3.102-2.331 3.102-1.933 0-3.529-3.504-3.529-6.791Zm25.184 7.628-.675-5.737c-.43-3.907-3.13-6.357-7.118-6.357-3.191 0-5.891 1.303-5.891 3.535 0 1.055.737 1.737 1.841 1.737 2.301 0 1.596-3.97 4.05-3.97 1.871 0 2.362 1.737 2.73 5.365l.031.372c-.797-.558-1.933-.93-3.344-.93-3.007 0-5.584 1.613-5.553 4.714 0 3.1 2.454 4.682 5.768 4.682 2.117 0 3.405-.775 4.08-1.799.184 1.334.982 1.675 2.731 1.675 1.472 0 2.945-.186 2.945-.9 0-.837-1.35-.247-1.595-2.387Zm-6.811 2.046c-1.565 0-2.577-1.891-2.577-4.03 0-1.582.951-2.605 2.239-2.605 1.258 0 2.24.93 2.424 2.76l.092 1.085c.092 1.395-.767 2.79-2.178 2.79Zm17.522-14.14c-2.056 0-3.497 1.085-4.172 3.07v-2.326c0-.589-.277-.96-.982-.62l-3.682 1.737c-.399.186-.644.434-.644.744v.124c0 .775 1.411.868 1.411 2.233v7.256c0 1.302-1.196 1.55-1.196 2.326v.124c0 .34.276.527.705.527h5.676c.399 0 .675-.186.675-.527v-.124c0-.776-1.534-1.024-1.534-2.326v-6.202c0-1.706.43-3.411 1.626-3.411 1.657 0 .583 2.667 2.976 2.667 1.473 0 1.963-1.148 1.963-2.45 0-1.581-1.012-2.822-2.822-2.822Zm9.967 15.505c3.989 0 6.075-2.512 6.259-5.055.061-.682-.706-.806-1.074-.31-.644 1.117-1.81 2.17-3.682 2.17-3.129 0-5.215-2.697-5.215-6.821 0-2.295 1.105-4.124 2.853-4.124 2.669-.031 2.485 4.372 5.124 4.527 1.411.062 1.902-.744 1.902-1.55 0-2.42-2.823-4.373-6.352-4.342-4.141.031-7.73 2.946-7.73 7.722 0 4.186 3.282 7.783 7.915 7.783Zm20.551-3.411-.674-5.737c-.43-3.907-3.13-6.357-7.118-6.357-3.191 0-5.891 1.303-5.891 3.535 0 1.055.736 1.737 1.841 1.737 2.301 0 1.595-3.97 4.05-3.97 1.871 0 2.362 1.737 2.73 5.365l.031.372c-.798-.558-1.934-.93-3.344-.93-3.007 0-5.584 1.613-5.554 4.714 0 3.1 2.455 4.682 5.769 4.682 2.116 0 3.404-.775 4.08-1.799.184 1.334.982 1.675 2.73 1.675 1.473 0 2.946-.186 2.946-.9 0-.837-1.35-.247-1.596-2.387Zm-6.811 2.046c-1.564 0-2.576-1.891-2.576-4.03 0-1.582.951-2.605 2.239-2.605 1.258 0 2.239.93 2.424 2.76l.092 1.085c.091 1.395-.768 2.79-2.179 2.79Zm24.088-1.953-.368-5.582c-.368-4.93-3.068-6.605-5.86-6.605-2.086 0-3.712.93-4.54 2.512v-1.737c0-.589-.338-1.023-1.044-.65l-3.65 1.798c-.369.186-.614.34-.614.65v.125c0 .775 1.503.9 1.503 2.295v7.225c0 1.333-1.319 1.581-1.319 2.357v.124c0 .31.276.527.705.527h5.707c.429 0 .706-.217.706-.527v-.124c0-.776-1.319-1.024-1.319-2.357v-7.04c0-2.015.951-3.41 2.607-3.41 1.627 0 2.517 1.364 2.67 4.682l.306 5.737c.062 1.364-1.104 1.612-1.104 2.388v.124c0 .31.276.527.706.527h5.307c.43 0 .706-.217.706-.527v-.124c0-.776-1.012-1.024-1.105-2.388Zm13.762-1.706c-.583.962-1.872 1.799-3.498 1.799-1.84 0-3.251-.992-4.049-2.698l6.811-3.132c.828-.372 1.349-.992 1.349-2.047 0-2.046-1.778-4.403-5.798-4.403-4.019 0-7.424 3.132-7.424 7.629 0 4.775 3.16 7.876 7.424 7.876 3.957 0 6.044-2.884 6.228-4.682.031-.652-.675-.807-1.043-.342Zm-5.737-9.116c1.656 0 2.455 2.201 2.455 3.318 0 .65-.246 1.178-.799 1.457l-3.958 2.016c-.214-.807-.306-1.706-.306-2.667 0-2.357.982-4.124 2.608-4.124Z"/>
</svg>
